<svg width="18" height="18" viewBox="0 0 18 18" fill="none" xmlns="http://www.w3.org/2000/svg">
<path d="M2.77778 4.91602H15.2222M2.77778 4.91602C2.30628 4.91602 1.8541 4.7053 1.5207 4.33023C1.1873 3.95516 1 3.44645 1 2.91602C1 2.38558 1.1873 1.87687 1.5207 1.5018C1.8541 1.12673 2.30628 0.916016 2.77778 0.916016H15.2222C15.6937 0.916016 16.1459 1.12673 16.4793 1.5018C16.8127 1.87687 17 2.38558 17 2.91602C17 3.44645 16.8127 3.95516 16.4793 4.33023C16.1459 4.7053 15.6937 4.91602 15.2222 4.91602M2.77778 4.91602V14.916C2.77778 15.4464 2.96508 15.9552 3.29848 16.3302C3.63187 16.7053 4.08406 16.916 4.55556 16.916H13.4444C13.9159 16.916 14.3681 16.7053 14.7015 16.3302C15.0349 15.9552 15.2222 15.4464 15.2222 14.916V4.91602M7.22222 8.91602H10.7778" stroke="#9EB2CC" stroke-linecap="round" stroke-linejoin="round"/>
</svg>
